<?xml version="1.0" encoding="utf-8"?>
<!-- Generator: Adobe Illustrator 19.0.0, SVG Export Plug-In . SVG Version: 6.00 Build 0)  -->
<svg version="1.0" id="Layer_1" xmlns="http://www.w3.org/2000/svg" xmlns:xlink="http://www.w3.org/1999/xlink" x="0px" y="0px"
	 width="1400px" height="980px" viewBox="0 0 1400 980" enable-background="new 0 0 1400 980" xml:space="preserve">
<g id="XMLID_1_">
	<g id="XMLID_2_">
		<g id="XMLID_152_">
			<circle id="XMLID_690_" fill="#F15D24" cx="244" cy="319.4" r="119.8"/>
		</g>
		<g id="XMLID_151_" opacity="0.5">
			<path id="XMLID_590_" fill="#F15D24" d="M310.6,219.8c12.8,19.1,20.2,42,20.2,66.6c0,66.2-53.7,119.8-119.8,119.8
				c-24.7,0-47.6-7.5-66.6-20.2c21.5,32.1,58.1,53.2,99.6,53.2c66.2,0,119.8-53.7,119.8-119.8C363.9,277.9,342.7,241.3,310.6,219.8z
				"/>
		</g>
		<g id="XMLID_150_">
			<path id="XMLID_603_" fill="#4F152A" d="M244,442.5c-67.8,0-123-55.2-123-123c0-67.8,55.2-123,123-123c67.8,0,123,55.2,123,123
				C367.1,387.3,311.9,442.5,244,442.5z M244,202.8c-64.3,0-116.6,52.3-116.6,116.6c0,64.3,52.3,116.6,116.6,116.6
				s116.6-52.3,116.6-116.6C360.7,255.1,308.4,202.8,244,202.8z"/>
		</g>
		<g id="XMLID_149_">
			<path id="XMLID_600_" fill="#4F152A" d="M244,442.5c-47.1,0-90.7-27.5-111.1-70c-0.4-0.8-0.4-1.8,0-2.7
				c27.4-60.8,88.1-100.2,154.8-100.2c25.8,0,50.6,5.6,73.7,16.8c0.8,0.4,1.5,1.2,1.7,2.1c2.6,10.1,3.9,20.5,3.9,31
				C367.1,387.3,311.9,442.5,244,442.5z M139.4,371c19.6,39.6,60.5,65,104.6,65c64.3,0,116.6-52.3,116.6-116.6
				c0-9.4-1.1-18.8-3.4-27.9c-21.8-10.3-45.2-15.5-69.5-15.5C224.1,276,166,313.2,139.4,371z"/>
		</g>
		<g id="XMLID_148_">
			<path id="XMLID_597_" fill="#4F152A" d="M198.2,433.4c-0.4,0-0.8-0.1-1.2-0.2c-46.2-19.1-76-63.8-76-113.7
				c0-15.3,2.8-30.3,8.4-44.6c0.2-0.5,0.5-0.9,0.9-1.3c1-0.8,24.5-20.2,52.9-17.5c16.9,1.6,32,10.6,45,26.6
				c28.3,34.9,18,90.7-27.4,149.4C200.1,432.9,199.2,433.4,198.2,433.4z M135,278c-5.1,13.3-7.6,27.2-7.6,41.4
				c0,46.6,27.3,88.2,69.8,106.9c42.2-55.4,52-107.4,26-139.5c-11.9-14.7-25.5-22.8-40.7-24.3C158.9,260.2,138.8,275,135,278z"/>
		</g>
		<g id="XMLID_147_">
			<path id="XMLID_594_" fill="#4F152A" d="M358.9,356.8c-0.9,0-1.8-0.4-2.4-1.1c-69-76.3-32.6-122-31-123.9
				c0.6-0.7,1.4-1.1,2.3-1.2c0.9,0,1.8,0.3,2.4,0.9c23.8,23.3,36.9,54.5,36.9,87.8c0,11.9-1.7,23.7-5.1,35.1
				c-0.3,1.1-1.2,1.9-2.4,2.2C359.4,356.8,359.1,356.8,358.9,356.8z M328.4,238.9c-2.6,4.4-6.9,13.8-7.4,27.3
				c-0.5,17.3,5.5,45.2,36.3,80.9c2.2-9,3.3-18.3,3.3-27.6C360.7,289.2,349.3,260.7,328.4,238.9z"/>
		</g>
		<g id="XMLID_146_">
			<path id="XMLID_591_" fill="#4F152A" d="M244,442.5c-67.8,0-123-55.2-123-123c0-65.6,51.3-119.6,116.8-122.9c1,0,2,0.4,2.6,1.2
				c32.3,39.2,50.1,88.9,50.1,139.8c0,35.4-8.6,70.6-24.9,101.7c-0.5,0.9-1.3,1.5-2.3,1.7C256.9,442,250.5,442.5,244,442.5z
				 M236.5,203c-61.3,3.9-109.1,54.7-109.1,116.4c0,64.3,52.3,116.6,116.6,116.6c5.5,0,11.1-0.4,16.7-1.2
				c15.3-29.9,23.4-63.5,23.4-97.3C284.1,288.6,267.2,240.9,236.5,203z"/>
		</g>
		<g id="XMLID_145_" opacity="0.5">
			<circle id="XMLID_589_" fill="#F15D24" cx="209.3" cy="293.8" r="44.9"/>
		</g>
	</g>
	<g id="XMLID_3_">
		<g id="XMLID_4_">
			<g id="XMLID_144_">
				<circle id="XMLID_689_" fill="#F15D24" cx="920.7" cy="276.5" r="76.9"/>
			</g>
			<g id="XMLID_143_" opacity="0.5">
				<path id="XMLID_573_" fill="#F15D24" d="M963.4,212.5c8.2,12.2,13,26.9,13,42.7c0,42.5-34.4,76.9-76.9,76.9
					c-15.8,0-30.5-4.8-42.7-13c13.8,20.6,37.3,34.1,63.9,34.1c42.5,0,76.9-34.4,76.9-76.9C997.6,249.8,984,226.3,963.4,212.5z"/>
			</g>
			<g id="XMLID_142_">
				<path id="XMLID_586_" fill="#4F152A" d="M920.7,356.5c-44.2,0-80.1-35.9-80.1-80.1c0-44.2,35.9-80.1,80.1-80.1
					c44.2,0,80.1,35.9,80.1,80.1C1000.8,320.6,964.9,356.5,920.7,356.5z M920.7,202.8c-40.6,0-73.7,33.1-73.7,73.7
					s33.1,73.7,73.7,73.7c40.6,0,73.7-33.1,73.7-73.7S961.3,202.8,920.7,202.8z"/>
			</g>
			<g id="XMLID_141_">
				<path id="XMLID_583_" fill="#4F152A" d="M920.7,356.5c-30.7,0-59-17.9-72.3-45.6c-0.4-0.8-0.4-1.8,0-2.7
					c17.7-39.4,57.1-64.9,100.4-64.9c16.7,0,32.8,3.7,47.7,10.9c0.8,0.4,1.5,1.2,1.7,2.1c1.7,6.6,2.6,13.3,2.6,20.2
					C1000.8,320.6,964.9,356.5,920.7,356.5z M854.9,309.5c12.4,24.7,38.1,40.6,65.9,40.6c40.6,0,73.7-33.1,73.7-73.7
					c0-5.8-0.7-11.5-2-17.1c-13.7-6.4-28.4-9.6-43.6-9.6C908.5,249.7,871.8,273.2,854.9,309.5z"/>
			</g>
			<g id="XMLID_140_">
				<path id="XMLID_580_" fill="#4F152A" d="M891.3,350.7c-0.4,0-0.8-0.1-1.2-0.2c-30.1-12.4-49.5-41.5-49.5-74
					c0-10,1.8-19.7,5.4-29c0.2-0.5,0.5-0.9,0.9-1.3c0.6-0.5,16-13.3,34.8-11.5c11.1,1.1,21.1,7,29.7,17.5
					c18.5,22.8,11.9,59.2-17.6,97.3C893.2,350.3,892.3,350.7,891.3,350.7z M851.7,250.6c-3.1,8.3-4.7,17-4.7,25.9
					c0,29.1,16.9,55.2,43.3,67.1c26.3-34.8,32.3-67.4,16.1-87.3c-7.4-9.2-15.9-14.3-25.3-15.2C866.9,239.7,854.6,248.3,851.7,250.6z
					"/>
			</g>
			<g id="XMLID_139_">
				<path id="XMLID_577_" fill="#4F152A" d="M994.4,301.6c-0.9,0-1.8-0.4-2.4-1.1c-44.9-49.6-21-79.7-19.9-81
					c0.6-0.7,1.4-1.1,2.3-1.2c0.9,0,1.8,0.3,2.4,0.9c15.5,15.2,24,35.5,24,57.1c0,7.7-1.1,15.4-3.3,22.9c-0.3,1.1-1.2,2-2.4,2.2
					C994.9,301.6,994.6,301.6,994.4,301.6z M975.1,226.7c-4.2,7.9-11.2,30.5,17.7,65c1.1-5,1.6-10.1,1.6-15.3
					C994.4,257.9,987.6,240.3,975.1,226.7z"/>
			</g>
			<g id="XMLID_138_">
				<path id="XMLID_574_" fill="#4F152A" d="M920.7,356.5c-44.2,0-80.1-35.9-80.1-80.1c0-42.7,33.4-77.8,76-80c1,0,2,0.4,2.6,1.2
					c20.9,25.4,32.4,57.5,32.4,90.4c0,22.9-5.6,45.6-16.1,65.8c-0.5,0.9-1.3,1.5-2.3,1.7C929.1,356.2,924.9,356.5,920.7,356.5z
					 M915.3,203c-38.4,2.8-68.3,34.7-68.3,73.5c0,40.6,33.1,73.7,73.7,73.7c3.3,0,6.6-0.2,9.9-0.7c9.6-18.9,14.6-40.1,14.6-61.4
					C945.3,257.2,934.7,227,915.3,203z"/>
			</g>
			<g id="XMLID_137_" opacity="0.5">
				<circle id="XMLID_572_" fill="#F15D24" cx="898.4" cy="260" r="28.8"/>
			</g>
		</g>
		<g id="XMLID_136_">
			<rect id="XMLID_688_" x="860.2" y="353.3" fill="#F9D640" width="121" height="59.3"/>
		</g>
		<g id="XMLID_135_" opacity="0.5">
			<rect id="XMLID_571_" x="974.8" y="353.3" fill="#FBB040" width="6.4" height="59.3"/>
		</g>
		<g id="XMLID_134_" opacity="0.5">
			<rect id="XMLID_570_" x="860.2" y="353.3" fill="#FFECD5" width="6.4" height="59.3"/>
		</g>
		<g id="XMLID_133_">
			<rect id="XMLID_687_" x="832.3" y="412.6" fill="#C49A6C" width="176.8" height="26.6"/>
		</g>
		<g id="XMLID_132_" opacity="0.5">
			<rect id="XMLID_569_" x="998.7" y="412.6" fill="#C49A6C" width="10.5" height="26.6"/>
		</g>
		<g id="XMLID_131_" opacity="0.5">
			<rect id="XMLID_559_" x="832.3" y="412.6" fill="#C49A6C" width="10.5" height="26.6"/>
		</g>
		<g id="XMLID_130_">
			<path id="XMLID_566_" fill="#4F152A" d="M981.2,415.8h-121c-1.8,0-3.2-1.4-3.2-3.2v-59.3c0-1.8,1.4-3.2,3.2-3.2h121
				c1.8,0,3.2,1.4,3.2,3.2v59.3C984.4,414.4,983,415.8,981.2,415.8z M863.4,409.4H978v-52.9H863.4V409.4z"/>
		</g>
		<g id="XMLID_129_">
			<path id="XMLID_563_" fill="#4F152A" d="M1009.1,442.5H832.3c-1.8,0-3.2-1.4-3.2-3.2v-26.6c0-1.8,1.4-3.2,3.2-3.2h176.8
				c1.8,0,3.2,1.4,3.2,3.2v26.6C1012.3,441,1010.9,442.5,1009.1,442.5z M835.5,436.1h170.4v-20.2H835.5V436.1z"/>
		</g>
		<g id="XMLID_128_">
			<rect id="XMLID_686_" x="871.5" y="375.8" fill="#FEF8E2" width="98.4" height="14.4"/>
		</g>
	</g>
	<g id="XMLID_5_">
		<g id="XMLID_127_">
			<path id="XMLID_685_" fill="#FBB040" d="M1208.1,780.2c0,0-81.5,6.4-81.5-59.9c0-51.9,20-68.2,20-68.2s-3.2,16.3,14.4,21.9
				c17.6,5.6,36-28.8,17.6-51.1c-18.4-22.4-4-70.3,29.6-82.3c0,0-13.6,33.6,16,57.5c29.6,24,50.3,58.5,50.3,109.5
				C1274.4,758.7,1249.6,780.2,1208.1,780.2z"/>
		</g>
		<g id="XMLID_6_">
			<g id="XMLID_126_">
				<path id="XMLID_684_" fill="#F15A29" d="M1151.6,677.7c4.7,1.5,9.5,0.1,13.6-3.2c-1.4,0-2.8-0.1-4.2-0.6
					c-17.6-5.6-14.4-21.9-14.4-21.9s-4.3,3.5-8.8,12.3C1139.1,669.3,1142.6,674.9,1151.6,677.7z"/>
			</g>
			<g id="XMLID_125_">
				<path id="XMLID_683_" fill="#F15A29" d="M1224.1,598.1c-29.6-24-16-57.5-16-57.5c-3.5,1.2-6.7,2.9-9.8,4.8
					c-2,5.9-10.1,35,16.4,56.4c29.6,24,50.3,58.5,50.3,109.5c0,34.4-11.2,55.4-31.3,65.4c25.9-7.9,40.6-29.7,40.6-69.2
					C1274.4,656.5,1253.6,622,1224.1,598.1z"/>
			</g>
		</g>
		<g id="XMLID_124_">
			<path id="XMLID_560_" fill="#4F152A" d="M1202.1,783.6c-12.8,0-42.1-2.1-61.2-19.8c-11.6-10.7-17.5-25.3-17.5-43.5
				c0-52.8,20.3-70,21.2-70.7c1-0.9,2.5-1,3.7-0.3c1.2,0.7,1.8,2,1.5,3.4c-0.3,1.4-2.1,13.7,12.2,18.2c5.2,1.7,11-1.3,15.4-7.9
				c6.5-9.7,8.9-25.7-1.3-38.2c-8.7-10.6-11.1-27.2-6.4-44.4c5.6-20.3,19.9-36.7,37.3-43c1.2-0.4,2.5-0.1,3.4,0.8
				c0.9,0.9,1.1,2.2,0.7,3.4c-0.5,1.3-12.3,31.7,15,53.8c34.2,27.7,51.5,65.4,51.5,112c0,50.3-23.3,75.8-69.4,75.8
				C1207.6,783.5,1205.4,783.6,1202.1,783.6z M1143.7,660.6c-5.6,8.4-13.9,26.6-13.9,59.7c0,16.3,5.2,29.3,15.4,38.8
				c22.5,20.8,62.2,18,62.6,17.9c0.1,0,0.2,0,0.2,0c42.5,0,63.1-22.7,63.1-69.4c0-45.2-16.1-80.2-49.2-107
				c-22.8-18.5-21.3-42.7-18.9-54.3c-12.8,6.8-23,20.1-27.4,36c-4.2,15.1-2.3,29.6,5.2,38.6c12.3,15,9.5,34.3,1.7,45.8
				c-6,8.9-14.7,12.9-22.7,10.4C1149.6,673.7,1145.2,666.8,1143.7,660.6z"/>
		</g>
		<g id="XMLID_7_">
			<g id="XMLID_123_">
				<path id="XMLID_682_" fill="#F15D24" d="M1252,721.9c0,27.2-22,49.2-49.3,49.2c-27.2,0-49.3-22-49.3-49.2
					c0-27.2,22.1-49.3,49.3-49.3C1230,672.7,1252,694.7,1252,721.9z"/>
			</g>
			<g id="XMLID_122_" opacity="0.5">
				<path id="XMLID_543_" fill="#F15D24" d="M1230.1,681c5.2,7.8,8.3,17.2,8.3,27.4c0,27.2-22.1,49.3-49.3,49.3
					c-10.1,0-19.5-3.1-27.4-8.3c8.8,13.2,23.9,21.9,40.9,21.9c27.2,0,49.3-22,49.3-49.2C1252,704.8,1243.3,689.8,1230.1,681z"/>
			</g>
			<g id="XMLID_121_">
				<path id="XMLID_556_" fill="#4F152A" d="M1202.8,774.4c-28.9,0-52.4-23.5-52.4-52.4c0-28.9,23.5-52.4,52.4-52.4
					c28.9,0,52.4,23.5,52.4,52.4C1255.2,750.8,1231.7,774.4,1202.8,774.4z M1202.8,675.9c-25.4,0-46.1,20.7-46.1,46.1
					c0,25.4,20.7,46.1,46.1,46.1s46.1-20.7,46.1-46.1C1248.8,696.5,1228.2,675.9,1202.8,675.9z"/>
			</g>
			<g id="XMLID_120_">
				<path id="XMLID_553_" fill="#4F152A" d="M1202.8,774.4c-20.1,0-38.7-11.7-47.3-29.8c-0.4-0.8-0.4-1.8,0-2.7
					c11.5-25.7,37.2-42.3,65.3-42.3c10.9,0,21.3,2.4,31.1,7.1c0.8,0.4,1.5,1.2,1.7,2.1c1.1,4.3,1.7,8.7,1.7,13.2
					C1255.2,750.8,1231.7,774.4,1202.8,774.4z M1161.9,743.1c7.9,15.2,23.8,24.9,40.9,24.9c25.4,0,46.1-20.7,46.1-46.1
					c0-3.4-0.4-6.8-1.1-10.2c-8.5-3.9-17.5-5.8-27-5.8C1195.6,705.9,1172.7,720.5,1161.9,743.1z"/>
			</g>
			<g id="XMLID_119_">
				<path id="XMLID_550_" fill="#4F152A" d="M1183.9,770.6c-0.4,0-0.8-0.1-1.2-0.2c-19.7-8.2-32.4-27.2-32.4-48.5
					c0-6.5,1.2-12.9,3.6-19c0.2-0.5,0.5-0.9,0.9-1.3c1.1-0.9,10.9-8.8,23.1-7.6c7.5,0.7,14.1,4.6,19.8,11.6
					c12.2,15.1,8,38.9-11.2,63.7C1185.9,770.2,1184.9,770.6,1183.9,770.6z M1159.5,706c-1.9,5.1-2.8,10.4-2.8,15.9
					c0,17.9,10.2,33.9,26.2,41.6c16-21.6,19.7-41.6,9.8-53.8c-4.5-5.6-9.7-8.7-15.4-9.3C1168.9,699.6,1161.7,704.4,1159.5,706z"/>
			</g>
			<g id="XMLID_118_">
				<path id="XMLID_547_" fill="#4F152A" d="M1250,739.2c-0.9,0-1.8-0.4-2.4-1.1c-29.5-32.6-13.5-52.6-12.8-53.4
					c0.6-0.7,1.4-1.1,2.3-1.1c0.9-0.1,1.8,0.3,2.4,0.9c10.1,9.9,15.7,23.2,15.7,37.4c0,5.1-0.7,10.1-2.2,15
					c-0.3,1.1-1.2,1.9-2.4,2.2C1250.4,739.1,1250.2,739.2,1250,739.2z M1237.9,692.1c-2.3,5.6-4.4,18.3,10.4,36.9
					c0.4-2.4,0.6-4.7,0.6-7.1C1248.8,710.9,1245,700.4,1237.9,692.1z"/>
			</g>
			<g id="XMLID_117_">
				<path id="XMLID_544_" fill="#4F152A" d="M1202.8,774.4c-28.9,0-52.4-23.5-52.4-52.4c0-28,21.9-51,49.8-52.4
					c1.1-0.1,2,0.4,2.6,1.2c13.6,16.5,21,37.3,21,58.7c0,14.8-3.6,29.6-10.4,42.7c-0.5,0.9-1.3,1.5-2.3,1.7
					C1208.3,774.1,1205.5,774.4,1202.8,774.4z M1198.8,676c-23.7,2-42.1,21.9-42.1,45.9c0,25.4,20.7,46.1,46.1,46.1
					c1.9,0,3.8-0.1,5.6-0.3c5.9-11.8,9-25,9-38.3C1217.4,710,1210.8,691.1,1198.8,676z"/>
			</g>
			<g id="XMLID_116_" opacity="0.5">
				<circle id="XMLID_542_" fill="#F15D24" cx="1188.5" cy="711.4" r="18.4"/>
			</g>
		</g>
	</g>
	<g id="XMLID_8_">
		<g id="XMLID_115_">
			<rect id="XMLID_681_" x="482.3" y="199.6" fill="#F15D24" width="239.7" height="155.8"/>
		</g>
		<g id="XMLID_114_" opacity="0.5">
			<rect id="XMLID_541_" x="712.4" y="199.6" fill="#F15D24" width="9.6" height="155.8"/>
		</g>
		<g id="XMLID_113_" opacity="0.5">
			<rect id="XMLID_537_" x="482.3" y="199.6" fill="#F15D24" width="9.6" height="155.8"/>
		</g>
		<g id="XMLID_112_">
			<path id="XMLID_538_" fill="#4F152A" d="M722,358.6H482.3c-1.8,0-3.2-1.4-3.2-3.2V199.6c0-1.8,1.4-3.2,3.2-3.2H722
				c1.8,0,3.2,1.4,3.2,3.2v155.8C725.2,357.1,723.7,358.6,722,358.6z M485.5,352.2h233.3V202.8H485.5V352.2z"/>
		</g>
		<g id="XMLID_111_">
			<rect id="XMLID_680_" x="539.8" y="229.1" fill="#FBB040" width="124.6" height="96.7"/>
		</g>
		<g id="XMLID_110_" opacity="0.5">
			<rect id="XMLID_536_" x="653.1" y="229.1" fill="#FBB040" width="11.3" height="96.7"/>
		</g>
		<g id="XMLID_109_" opacity="0.5">
			<rect id="XMLID_518_" x="539.8" y="229.1" fill="#FBB040" width="11.3" height="96.7"/>
		</g>
		<g id="XMLID_108_">
			<path id="XMLID_533_" fill="#4F152A" d="M664.4,329H539.8c-1.8,0-3.2-1.4-3.2-3.2v-96.7c0-1.8,1.4-3.2,3.2-3.2h124.6
				c1.8,0,3.2,1.4,3.2,3.2v96.7C667.6,327.6,666.2,329,664.4,329z M543,322.6h118.2v-90.3H543V322.6z"/>
		</g>
		<g id="XMLID_9_">
			<g id="XMLID_107_">
				<path id="XMLID_679_" fill="#2BB673" d="M682.8,326.5c0,5.5-4.5,10-10,10H531.4c-5.5,0-10-4.5-10-10l0,0c0-5.5,4.5-10,10-10
					h141.4C678.3,316.5,682.8,321,682.8,326.5L682.8,326.5z"/>
			</g>
			<g id="XMLID_106_">
				<path id="XMLID_530_" fill="#4F152A" d="M672.8,339.7H531.4c-7.3,0-13.2-5.9-13.2-13.2c0-7.3,5.9-13.2,13.2-13.2h141.4
					c7.3,0,13.2,5.9,13.2,13.2C686,333.8,680.1,339.7,672.8,339.7z M531.4,319.7c-3.7,0-6.8,3-6.8,6.8c0,3.7,3,6.8,6.8,6.8h141.4
					c3.7,0,6.8-3,6.8-6.8c0-3.7-3-6.8-6.8-6.8H531.4z"/>
			</g>
			<g id="XMLID_105_">
				<path id="XMLID_529_" fill="#4F152A" d="M550.4,442.5c-0.1,0-0.3,0-0.4,0c-1.7-0.2-3-1.9-2.7-3.6c9.3-65.8-18.1-100-18.3-100.3
					c-1.1-1.4-0.9-3.4,0.4-4.5c1.4-1.1,3.4-0.9,4.5,0.4c1.2,1.5,29.4,36.5,19.7,105.3C553.4,441.3,552,442.5,550.4,442.5z"/>
			</g>
			<g id="XMLID_104_">
				<path id="XMLID_528_" fill="#4F152A" d="M653.8,442.5c-1.6,0-2.9-1.2-3.2-2.8c-9.7-68.8,18.5-103.8,19.7-105.3
					c1.1-1.4,3.1-1.5,4.5-0.4c1.4,1.1,1.6,3.1,0.4,4.5c-0.3,0.4-27.6,34.6-18.3,100.3c0.2,1.7-1,3.4-2.7,3.6
					C654.1,442.5,653.9,442.5,653.8,442.5z"/>
			</g>
			<g id="XMLID_103_">
				<path id="XMLID_527_" fill="#4F152A" d="M552.3,421.6c-1.7,0-3.1-1.3-3.2-3c-0.1-1.8,1.3-3.3,3-3.4c24.9-1.3,43.4-9.2,54.9-23.6
					c18.1-22.7,12.7-54.2,12.7-54.5c-0.3-1.7,0.8-3.4,2.6-3.7c1.8-0.3,3.4,0.8,3.7,2.6c0.2,1.4,5.9,34.6-14,59.6
					c-12.7,15.9-32.7,24.7-59.6,26C552.4,421.6,552.4,421.6,552.3,421.6z"/>
			</g>
			<g id="XMLID_102_">
				<path id="XMLID_526_" fill="#4F152A" d="M651.8,421.6c-0.1,0-0.1,0-0.2,0c-26.9-1.4-46.9-10.1-59.6-26
					c-19.9-25-14.2-58.2-14-59.6c0.3-1.7,2-2.9,3.7-2.6c1.7,0.3,2.9,2,2.6,3.7c-0.1,0.3-5.4,31.9,12.7,54.5
					c11.5,14.4,29.9,22.3,54.9,23.6c1.8,0.1,3.1,1.6,3,3.4C654.9,420.2,653.5,421.6,651.8,421.6z"/>
			</g>
			<g id="XMLID_101_">
				<path id="XMLID_525_" fill="#4F152A" d="M551.1,394c-1.8,0-3.2-1.4-3.2-3.2s1.4-3.2,3.2-3.2c9.4,0,16.6-2.5,21.4-7.3
					c6.4-6.5,6.3-15.3,6.3-15.4c0-1.8,1.4-3.2,3.1-3.3c0,0,0,0,0.1,0c1.7,0,3.1,1.4,3.2,3.1c0,0.5,0.2,11.5-8,20
					C571.1,390.9,562.3,394,551.1,394z"/>
			</g>
			<g id="XMLID_100_">
				<path id="XMLID_524_" fill="#4F152A" d="M653.1,394c-11.3,0-20-3.1-25.9-9.3c-8.1-8.5-7.7-19.5-7.7-20c0.1-1.8,1.6-3.1,3.3-3
					c1.8,0.1,3.1,1.6,3,3.3c0,0.2-0.2,8.9,6,15.4c4.6,4.8,11.8,7.3,21.2,7.3c1.8,0,3.2,1.4,3.2,3.2S654.9,394,653.1,394z"/>
			</g>
			<g id="XMLID_99_">
				<path id="XMLID_523_" fill="#4F152A" d="M624.1,439.2c-50.2,0-74.4-35.1-74.6-35.5c-1-1.5-0.6-3.5,0.9-4.4
					c1.5-1,3.4-0.6,4.4,0.9c1.3,1.9,31.5,45.4,97.4,29c1.7-0.4,3.4,0.6,3.9,2.3c0.4,1.7-0.6,3.4-2.3,3.9
					C643,438.1,633.1,439.2,624.1,439.2z"/>
			</g>
			<g id="XMLID_98_">
				<path id="XMLID_522_" fill="#4F152A" d="M580.2,439.2c-9,0-18.9-1.1-29.6-3.8c-1.7-0.4-2.8-2.2-2.3-3.9c0.4-1.7,2.2-2.8,3.9-2.3
					c65.9,16.4,96.1-27.2,97.4-29c1-1.5,3-1.9,4.4-0.9c1.5,1,1.9,3,0.9,4.4C654.5,404.2,630.4,439.2,580.2,439.2z"/>
			</g>
		</g>
	</g>
	<g id="XMLID_10_">
		<g id="XMLID_97_">
			<path id="XMLID_678_" fill="#27AAE1" d="M1270.2,297.7c-36.8-15.9-15.3-89.6-15.3-89.6l-19.3-8.5c-12.5,4-18.7,57.9-18.7,57.9
				c-7.4,7.9-16.4,7.6-16.4,7.6s-9.1,0.3-16.4-7.6c0,0-6.2-53.9-18.7-57.9l-19.3,8.5c0,0,21.5,73.7-15.3,89.6
				c0,0,20.4,38.5,18.1,82.7c-2.3,44.2,0.6,58.9,0.6,58.9h51h51c0,0,2.8-14.7,0.6-58.9C1249.8,336.2,1270.2,297.7,1270.2,297.7z"/>
		</g>
		<g id="XMLID_11_" opacity="0.5">
			<g id="XMLID_96_">
				<path id="XMLID_677_" fill="#27AAE1" d="M1175.6,257.5c7.4,7.9,16.4,7.6,16.4,7.6s1.7,0.1,4.3-0.5c-3.3-0.8-8-2.6-12.2-7.1
					c0,0-6.2-53.9-18.7-57.9l-5.2,2.3C1170.4,213.1,1175.6,257.5,1175.6,257.5z"/>
			</g>
			<g id="XMLID_95_">
				<path id="XMLID_676_" fill="#27AAE1" d="M1270.2,297.7c-36.8-15.9-15.3-89.6-15.3-89.6l-19.3-8.5c-1.2,0.4-2.3,1.2-3.3,2.3
					l14,6.2c0,0-21.5,73.7,15.3,89.6c0,0-20.4,38.5-18.1,82.7c2.3,44.2-0.6,58.9-0.6,58.9h8.5c0,0,2.8-14.7,0.6-58.9
					C1249.8,336.2,1270.2,297.7,1270.2,297.7z"/>
			</g>
		</g>
		<g id="XMLID_12_" opacity="0.5">
			<g id="XMLID_94_">
				<path id="XMLID_675_" fill="#27AAE1" d="M1225.5,257.5c-7.4,7.9-16.4,7.6-16.4,7.6s-1.7,0.1-4.3-0.5c3.3-0.8,8-2.6,12.2-7.1
					c0,0,6.2-53.9,18.7-57.9l5.2,2.3C1230.6,213.1,1225.5,257.5,1225.5,257.5z"/>
			</g>
			<g id="XMLID_93_">
				<path id="XMLID_674_" fill="#27AAE1" d="M1130.8,297.7c36.8-15.9,15.3-89.6,15.3-89.6l19.3-8.5c1.2,0.4,2.3,1.2,3.3,2.3l-14,6.2
					c0,0,21.5,73.7-15.3,89.6c0,0,20.4,38.5,18.1,82.7c-2.3,44.2,0.6,58.9,0.6,58.9h-8.5c0,0-2.8-14.7-0.6-58.9
					C1151.2,336.2,1130.8,297.7,1130.8,297.7z"/>
			</g>
		</g>
		<g id="XMLID_13_">
			<g id="XMLID_92_">
				<path id="XMLID_673_" fill="#EF495D" d="M1149,380.4c2.1-41.2-15.4-77.4-17.8-82.2c-0.6,5.7-5.9,58.6-5.9,141.1h24.3
					C1149.5,439.3,1146.7,424.5,1149,380.4z"/>
			</g>
			<g id="XMLID_91_">
				<path id="XMLID_672_" fill="#EF495D" d="M1275.8,439.3c0-82.4-5.3-135.3-5.9-141.1c-2.4,4.7-20,41-17.8,82.2
					c2.3,44.2-0.6,58.9-0.6,58.9H1275.8z"/>
			</g>
			<g id="XMLID_14_">
				<g id="XMLID_90_">
					<path id="XMLID_671_" fill="#EF495D" d="M1275.8,439.3c0-82.4-5.3-135.3-5.9-141.1c-2.4,4.7-20,41-17.8,82.2
						c2.3,44.2-0.6,58.9-0.6,58.9H1275.8z"/>
				</g>
			</g>
		</g>
		<g id="XMLID_89_">
			<path id="XMLID_670_" fill="#EF495D" d="M1184.1,257.5c7.4,7.9,16.4,7.6,16.4,7.6s9.1,0.3,16.4-7.6c0,0,1.4-12.2,4.2-25.4h0
				c0,0-8.1,7.2-20.7,7.2c-12.5,0-20.7-7.2-20.7-7.2l0,0C1182.7,245.3,1184.1,257.5,1184.1,257.5z"/>
		</g>
		<g id="XMLID_15_" opacity="0.5">
			<g id="XMLID_88_">
				<path id="XMLID_669_" fill="#BE1E2D" d="M1221.2,232c0,0-2.7,2.4-7.3,4.4c-2.2,11.4-3.3,21-3.3,21c-4.6,5-9.9,6.7-13.2,7.3
					c1.9,0.4,3.2,0.3,3.2,0.3s9.1,0.3,16.4-7.6C1216.9,257.5,1218.3,245.3,1221.2,232L1221.2,232z"/>
			</g>
		</g>
		<g id="XMLID_16_" opacity="0.5">
			<g id="XMLID_87_">
				<path id="XMLID_668_" fill="#F48797" d="M1179.8,232c0,0,2.7,2.4,7.3,4.4c2.2,11.4,3.3,21,3.3,21c4.6,5,9.9,6.7,13.2,7.3
					c-1.9,0.4-3.2,0.3-3.2,0.3s-9.1,0.3-16.4-7.6C1184.1,257.5,1182.7,245.3,1179.8,232L1179.8,232z"/>
			</g>
		</g>
		<g id="XMLID_86_">
			<path id="XMLID_519_" fill="#4F152A" d="M1251.5,442.5h-101.9c-1.5,0-2.8-1.1-3.1-2.6c-0.1-0.6-2.9-15.6-0.6-59.7
				c2.2-42.8-17.6-80.7-17.8-81c-0.4-0.8-0.5-1.7-0.2-2.6c0.3-0.8,0.9-1.5,1.8-1.9c33.8-14.6,13.7-85.1,13.5-85.8
				c-0.4-1.5,0.3-3.2,1.8-3.8l19.3-8.5c0.7-0.3,1.5-0.4,2.3-0.1c13.3,4.2,19.4,48.1,20.8,59.5c6.1,6,13.2,5.9,13.3,5.9
				c0.1,0,0.1,0,0.2,0c0.3,0,7.2,0.1,13.3-5.9c1.4-11.4,7.5-55.3,20.8-59.5c0.7-0.2,1.5-0.2,2.3,0.1l19.3,8.5
				c1.5,0.6,2.2,2.3,1.8,3.8c-0.2,0.7-20.3,71.2,13.5,85.8c0.8,0.4,1.5,1,1.7,1.9c0.3,0.8,0.2,1.8-0.2,2.6
				c-0.2,0.4-19.9,38.3-17.8,81c2.3,44.1-0.5,59.1-0.6,59.7C1254.3,441.4,1253,442.5,1251.5,442.5z M1152.3,436.1h96.4
				c0.7-5.9,1.9-22.4,0.2-55.5c-2-38,12.3-71.5,17-81.4c-31.4-17.3-18.3-75.7-14.8-89.2l-15.4-6.8c-6.2,4.3-12.8,31-15.6,54.7
				c-0.1,0.7-0.4,1.3-0.8,1.8c-7.9,8.5-17.6,8.6-18.8,8.7c-1.2,0-10.8-0.1-18.8-8.7c-0.5-0.5-0.8-1.1-0.8-1.8
				c-2.7-23.8-9.3-50.5-15.6-54.7l-15.4,6.8c3.5,13.5,16.6,71.9-14.8,89.2c4.7,9.9,19,43.4,17,81.4
				C1150.5,413.7,1151.7,430.2,1152.3,436.1z"/>
		</g>
		<g id="XMLID_85_" opacity="0.5">
			<path id="XMLID_517_" fill="#BE1E2D" d="M1269.9,298.2c-0.7,1.3-2.5,5-4.7,10.4c1.7,20,4.9,66.3,4.9,130.6h5.6
				C1275.8,356.8,1270.5,303.9,1269.9,298.2z"/>
		</g>
		<g id="XMLID_84_" opacity="0.5">
			<path id="XMLID_507_" fill="#BE1E2D" d="M1131.1,298.2c0.7,1.3,2.5,5,4.7,10.4c-1.7,20-4.9,66.3-4.9,130.6h-5.6
				C1125.2,356.8,1130.5,303.9,1131.1,298.2z"/>
		</g>
		<g id="XMLID_17_">
			<g id="XMLID_83_">
				<path id="XMLID_514_" fill="#4F152A" d="M1149.5,442.5h-24.3c-1.8,0-3.2-1.4-3.2-3.2c0-82.6,5.3-135.6,5.9-141.4
					c0.1-1.4,1.2-2.6,2.6-2.8c1.4-0.3,2.8,0.4,3.4,1.7c2.1,4.1,20.4,41.6,18.2,83.8l0,0c-2.2,43,0.5,58,0.5,58.1
					c0.2,0.9-0.1,1.9-0.7,2.6C1151.4,442,1150.5,442.5,1149.5,442.5z M1128.4,436.1h17.5c-0.7-6.8-1.8-23.5-0.1-55.9
					c1.5-28.6-6.9-55-12.6-69.4C1131.5,331.2,1128.5,375.4,1128.4,436.1z"/>
			</g>
			<g id="XMLID_82_">
				<path id="XMLID_511_" fill="#4F152A" d="M1275.8,442.5h-24.3c-1,0-1.9-0.4-2.5-1.2c-0.6-0.7-0.9-1.7-0.7-2.6
					c0-0.1,2.7-15.1,0.5-58.1c-2.2-42.2,16.1-79.6,18.2-83.8c0.6-1.3,2-2,3.4-1.7c1.4,0.3,2.5,1.4,2.6,2.8
					c0.6,5.8,5.9,58.9,5.9,141.4C1279,441,1277.6,442.5,1275.8,442.5z M1255.1,436.1h17.5c-0.1-60.6-3.1-104.8-4.8-125.3
					c-5.7,14.4-14.1,40.8-12.6,69.4C1256.9,412.6,1255.8,429.3,1255.1,436.1z"/>
			</g>
		</g>
		<g id="XMLID_81_">
			<path id="XMLID_508_" fill="#4F152A" d="M1200.4,268.3c-1.6,0-11-0.4-18.7-8.7c-0.5-0.5-0.8-1.1-0.8-1.8c0-0.1-1.4-12.2-4.2-25.1
				c-0.3-1.3,0.3-2.7,1.5-3.4c1.2-0.7,2.7-0.5,3.7,0.4c0.1,0.1,7.5,6.4,18.5,6.4c11.2,0,18.5-6.3,18.5-6.4c1-0.9,2.5-1.1,3.7-0.4
				c1.2,0.7,1.8,2.1,1.5,3.4c-2.8,12.9-4.2,25-4.2,25.1c-0.1,0.7-0.4,1.3-0.8,1.8c-7.9,8.5-17.6,8.7-18.8,8.7
				C1200.5,268.3,1200.4,268.3,1200.4,268.3z M1200.5,261.9c0.1,0,0.1,0,0.2,0c0.8,0,7.4-0.2,13.2-5.9c0.3-2.6,1.2-9.3,2.7-17.3
				c-3.9,1.9-9.4,3.7-16.1,3.7c-6.6,0-12.1-1.8-16.1-3.8c1.5,8,2.4,14.8,2.7,17.3C1193.2,262,1200.1,261.9,1200.5,261.9
				C1200.4,261.9,1200.5,261.9,1200.5,261.9z"/>
		</g>
		<g id="XMLID_80_">
			<circle id="XMLID_667_" fill="#6CCEF0" cx="1200.5" cy="331.1" r="25.6"/>
		</g>
	</g>
	<g id="XMLID_18_">
		<g id="XMLID_19_">
			<g id="XMLID_79_">
				<circle id="XMLID_666_" fill="#F15D24" cx="602.1" cy="622.7" r="82"/>
			</g>
			<g id="XMLID_78_" opacity="0.5">
				<path id="XMLID_491_" fill="#F15D24" d="M647.7,554.6c8.7,13,13.8,28.7,13.8,45.6c0,45.3-36.7,82-82,82
					c-16.9,0-32.5-5.1-45.6-13.8c14.7,22,39.8,36.4,68.2,36.4c45.3,0,82-36.7,82-82C684.1,594.3,669.6,569.3,647.7,554.6z"/>
			</g>
			<g id="XMLID_77_">
				<path id="XMLID_504_" fill="#4F152A" d="M602.1,707.9c-47,0-85.2-38.2-85.2-85.2c0-47,38.2-85.2,85.2-85.2s85.2,38.2,85.2,85.2
					C687.3,669.7,649.1,707.9,602.1,707.9z M602.1,543.9c-43.5,0-78.8,35.4-78.8,78.8c0,43.5,35.4,78.8,78.8,78.8
					c43.5,0,78.8-35.3,78.8-78.8C680.9,579.3,645.6,543.9,602.1,543.9z"/>
			</g>
			<g id="XMLID_76_">
				<path id="XMLID_501_" fill="#4F152A" d="M602.1,707.9c-32.6,0-62.8-19-76.9-48.5c-0.4-0.8-0.4-1.8,0-2.7
					c18.9-42,60.8-69.1,106.9-69.1c17.8,0,34.9,3.9,50.8,11.6c0.8,0.4,1.5,1.2,1.7,2.1c1.8,7,2.7,14.2,2.7,21.4
					C687.3,669.7,649.1,707.9,602.1,707.9z M531.6,658c13.3,26.5,40.8,43.5,70.5,43.5c43.5,0,78.8-35.3,78.8-78.8
					c0-6.2-0.7-12.4-2.2-18.4c-14.7-6.8-30.4-10.3-46.7-10.3C589,594,549.8,619.1,531.6,658z"/>
			</g>
			<g id="XMLID_75_">
				<path id="XMLID_498_" fill="#4F152A" d="M570.8,701.7c-0.4,0-0.8-0.1-1.2-0.2c-32-13.2-52.6-44.1-52.6-78.7
					c0-10.6,1.9-21,5.8-30.9c0.2-0.5,0.5-0.9,0.9-1.3c0.7-0.6,17-14.1,36.9-12.2c11.8,1.1,22.4,7.4,31.5,18.6
					c19.7,24.3,12.7,62.9-18.7,103.5C572.7,701.3,571.7,701.7,570.8,701.7z M528.4,595c-3.3,8.9-5,18.2-5,27.7
					c0,31.2,18.1,59.1,46.4,71.9c28.2-37.3,34.7-72.1,17.3-93.6c-7.9-9.8-17.1-15.3-27.1-16.2C544.5,583.3,531.4,592.7,528.4,595z"
					/>
			</g>
			<g id="XMLID_74_">
				<path id="XMLID_495_" fill="#4F152A" d="M680.7,649.3c-0.9,0-1.8-0.4-2.4-1.1c-47.7-52.8-22.4-84.8-21.3-86.1
					c0.6-0.7,1.4-1.1,2.3-1.2c0.9,0,1.8,0.3,2.4,0.9c16.5,16.2,25.5,37.7,25.5,60.8c0,8.2-1.2,16.4-3.5,24.3
					c-0.3,1.1-1.2,1.9-2.4,2.2C681.2,649.3,680.9,649.3,680.7,649.3z M660,569.3c-4.5,8.2-12.5,32.7,19.1,70.1
					c1.2-5.5,1.8-11.1,1.8-16.7C680.9,602.7,673.5,583.9,660,569.3z"/>
			</g>
			<g id="XMLID_73_">
				<path id="XMLID_492_" fill="#4F152A" d="M602.1,707.9c-47,0-85.2-38.2-85.2-85.2c0-45.4,35.5-82.8,80.9-85.1c1,0,2,0.4,2.6,1.2
					c22.3,27,34.5,61.2,34.5,96.3c0,24.4-5.9,48.6-17.1,70.1c-0.5,0.9-1.3,1.5-2.3,1.7C611,707.6,606.5,707.9,602.1,707.9z
					 M596.5,544.1c-41.2,2.9-73.2,37.1-73.2,78.6c0,43.5,35.4,78.8,78.8,78.8c3.6,0,7.2-0.2,10.7-0.7c10.3-20.2,15.7-42.9,15.7-65.7
					C628.5,602.1,617.2,569.8,596.5,544.1z"/>
			</g>
			<g id="XMLID_72_" opacity="0.5">
				<path id="XMLID_479_" fill="#F15D24" d="M609,605.2c0,17-13.7,30.7-30.7,30.7c-17,0-30.7-13.7-30.7-30.7
					c0-17,13.7-30.7,30.7-30.7C595.3,574.5,609,588.2,609,605.2z"/>
			</g>
		</g>
		<g id="XMLID_20_">
			<g id="XMLID_71_">
				<path id="XMLID_665_" fill="#2BB673" d="M715.6,621.7c0,7.8-6.3,14.1-14.1,14.1h-199c-7.8,0-14.1-6.3-14.1-14.1l0,0
					c0-7.8,6.3-14.1,14.1-14.1h199C709.4,607.7,715.6,614,715.6,621.7L715.6,621.7z"/>
			</g>
			<g id="XMLID_70_">
				<path id="XMLID_488_" fill="#4F152A" d="M701.6,639h-199c-9.5,0-17.2-7.7-17.2-17.2c0-9.5,7.7-17.2,17.2-17.2h199
					c9.5,0,17.2,7.7,17.2,17.2C718.8,631.2,711.1,639,701.6,639z M502.6,610.9c-6,0-10.9,4.9-10.9,10.9c0,6,4.9,10.9,10.9,10.9h199
					c6,0,10.9-4.9,10.9-10.9c0-6-4.9-10.9-10.9-10.9H502.6z"/>
			</g>
			<g id="XMLID_69_">
				<path id="XMLID_487_" fill="#4F152A" d="M529.4,783.6c-0.1,0-0.3,0-0.4,0c-1.7-0.2-3-1.9-2.7-3.6
					c13.1-93.5-25.7-141.7-26.1-142.2c-1.1-1.4-0.9-3.4,0.4-4.5c1.4-1.1,3.4-0.9,4.5,0.4c1.7,2,41,50.9,27.5,147.1
					C532.4,782.5,531,783.6,529.4,783.6z"/>
			</g>
			<g id="XMLID_68_">
				<path id="XMLID_486_" fill="#4F152A" d="M674.8,783.6c-1.6,0-2.9-1.2-3.2-2.8c-13.5-96.2,25.8-145.1,27.5-147.1
					c1.1-1.4,3.1-1.6,4.5-0.4c1.4,1.1,1.6,3.1,0.4,4.5l0,0c-0.4,0.5-39.2,48.9-26.1,142.2c0.2,1.7-1,3.4-2.7,3.6
					C675.1,783.6,674.9,783.6,674.8,783.6z"/>
			</g>
			<g id="XMLID_67_">
				<path id="XMLID_485_" fill="#4F152A" d="M532.1,754.2c-1.7,0-3.1-1.3-3.2-3c-0.1-1.8,1.3-3.3,3-3.4
					c35.5-1.8,61.8-13.1,78.1-33.7c25.8-32.4,18.2-77.3,18.1-77.8c-0.3-1.7,0.9-3.4,2.6-3.7c1.7-0.3,3.4,0.8,3.7,2.6
					c0.3,1.9,8.2,48.1-19.4,82.8c-17.6,22.1-45.5,34.3-82.9,36.2C532.2,754.2,532.1,754.2,532.1,754.2z"/>
			</g>
			<g id="XMLID_66_">
				<path id="XMLID_484_" fill="#4F152A" d="M672,754.2c-0.1,0-0.1,0-0.2,0c-37.4-1.9-65.3-14-82.9-36.2
					c-27.6-34.7-19.7-80.9-19.4-82.8c0.3-1.7,2-2.9,3.7-2.6c1.7,0.3,2.9,2,2.6,3.7c-0.1,0.5-7.7,45.4,18.1,77.8
					c16.4,20.6,42.7,31.9,78.1,33.7c1.8,0.1,3.1,1.6,3,3.4C675.1,752.9,673.7,754.2,672,754.2z"/>
			</g>
			<g id="XMLID_65_">
				<path id="XMLID_483_" fill="#4F152A" d="M530.3,715.4c-1.8,0-3.2-1.4-3.2-3.2c0-1.8,1.4-3.2,3.2-3.2c13.7,0,24.1-3.6,31.1-10.7
					c9.4-9.6,9.1-22.4,9.1-22.5c0-1.8,1.3-3.2,3.1-3.3c0,0,0.1,0,0.1,0c1.7,0,3.1,1.4,3.2,3.1c0,0.6,0.3,15.6-10.9,27.1
					C557.8,711.1,545.8,715.4,530.3,715.4z"/>
			</g>
			<g id="XMLID_64_">
				<path id="XMLID_482_" fill="#4F152A" d="M673.8,715.4c-15.5,0-27.4-4.3-35.5-12.7c-11-11.5-10.5-26.5-10.4-27.2
					c0.1-1.8,1.6-3.1,3.3-3c1.8,0.1,3.1,1.6,3,3.3l0,0c0,0.1-0.4,13,8.7,22.5c6.8,7.1,17.1,10.6,30.8,10.6c1.8,0,3.2,1.4,3.2,3.2
					C677,714,675.6,715.4,673.8,715.4z"/>
			</g>
			<g id="XMLID_63_">
				<path id="XMLID_481_" fill="#4F152A" d="M632.9,779.1c-30.1,0-52.9-8.9-68.3-18c-23.7-13.9-35.1-30.7-35.5-31.4
					c-1-1.5-0.6-3.5,0.9-4.4c1.5-1,3.4-0.6,4.4,0.9l0,0c0.1,0.2,11.2,16.4,33.7,29.6c20.7,12.1,55.7,24,104.7,11.8
					c1.7-0.4,3.4,0.6,3.9,2.3c0.4,1.7-0.6,3.4-2.3,3.9C659.3,777.5,645.5,779.1,632.9,779.1z"/>
			</g>
			<g id="XMLID_62_">
				<path id="XMLID_480_" fill="#4F152A" d="M571.4,779.1c-12.6,0-26.4-1.6-41.5-5.3c-1.7-0.4-2.8-2.2-2.3-3.9
					c0.4-1.7,2.2-2.8,3.9-2.3c49,12.2,84,0.3,104.7-11.8c22.5-13.2,33.6-29.4,33.7-29.6c1-1.5,3-1.9,4.4-0.9c1.5,1,1.9,3,0.9,4.4
					c-0.5,0.7-11.9,17.5-35.5,31.4C624.3,770.1,601.5,779.1,571.4,779.1z"/>
			</g>
		</g>
	</g>
	<g id="XMLID_21_">
		<g id="XMLID_61_">
			<path id="XMLID_664_" fill="#7078A3" d="M914.8,693.8c0,0-36.5-12.9-37.2-53.1c0,0,16.1-13.5,22.7-7.9
				C906.9,638.4,914.8,674.5,914.8,693.8z"/>
		</g>
		<g id="XMLID_60_">
			<path id="XMLID_663_" fill="#7078A3" d="M959.3,711.9c-21.5-1.2-35.4-8.8-44.5-18.1c0,0-26.8-9.5-34.9-37.5
				c-4.1,1.3-9.4,2.7-16.1,4.2c-33.6,7.3-38.2-10.5-54.7-10.5c-16.4,0-1.3,34.3,5.9,42.8c7.2,8.6-4,16.5-11.9,38.9
				c-7.9,22.4,7.2,30.3,7.2,30.3h220.1C1041.7,709.9,1005.4,714.5,959.3,711.9z"/>
		</g>
		<g id="XMLID_22_" opacity="0.5">
			<g id="XMLID_59_">
				<path id="XMLID_662_" fill="#7078A3" d="M813.3,731.7c7.9-22.4,19.1-30.3,11.9-38.9c-6.5-7.7-19.5-36.5-9.8-41.9
					c-1.9-0.6-4-0.9-6.2-0.9c-16.4,0-1.3,34.3,5.9,42.8c7.2,8.6-4,16.5-11.9,38.9c-7.9,22.4,7.2,30.3,7.2,30.3h10.1
					C820.5,762,805.4,754.1,813.3,731.7z"/>
			</g>
		</g>
		<g id="XMLID_58_">
			<path id="XMLID_661_" fill="#1C75BC" d="M959.3,711.9c-21.5-1.2-35.4-8.8-44.5-18.1c0,0-26.8-9.5-34.9-37.5
				c-4.1,1.3-9.4,2.7-16.1,4.2c0,0,3.9,68,115.1,73.2c1-7.6,3.7-14.5,7.9-20.5C978.2,712.7,969,712.5,959.3,711.9z"/>
		</g>
		<g id="XMLID_57_">
			<path id="XMLID_660_" fill="#FFFFFF" d="M986.7,713.2c-5.2,7.5-8.3,16.6-8.3,26.4c0,8.1,2.1,15.8,5.8,22.4h46.3
				C1039.3,720.9,1018.5,715.1,986.7,713.2z"/>
		</g>
		<g id="XMLID_23_" opacity="0.5">
			<g id="XMLID_56_">
				<path id="XMLID_659_" fill="#7078A3" d="M959.3,711.9c-21.5-1.2-35.4-8.8-44.5-18.1c0,0-26.8-9.5-34.9-37.5
					c-3,0.9-6.5,1.9-10.8,2.9c9,25.7,33.9,34.5,33.9,34.6c9.1,9.3,23,16.8,44.5,18.1c46.1,2.6,82.4-2,71.2,50.1h11.7
					C1041.7,709.9,1005.4,714.5,959.3,711.9z"/>
			</g>
		</g>
		<g id="XMLID_24_">
			<g id="XMLID_55_">
				<path id="XMLID_658_" fill="#FFFFFF" d="M894.6,709L841.7,762h24.5l43.8-43.8C904.1,715.4,899.1,712.3,894.6,709z"/>
			</g>
			<g id="XMLID_54_">
				<path id="XMLID_657_" fill="#FFFFFF" d="M869,678.6l-68,68c1.1,10.1,7.9,14.5,9.2,15.3l68.2-68.2
					C874.2,688.4,871.1,683.2,869,678.6z"/>
			</g>
		</g>
		<g id="XMLID_53_">
			<path id="XMLID_656_" fill="#1C75BC" d="M1040.6,771.2c0,5.1-4.1,9.2-9.2,9.2H810.2c-5.1,0-9.2-4.1-9.2-9.2l0,0
				c0-5.1,4.1-9.2,9.2-9.2h221.1C1036.4,762,1040.6,766.1,1040.6,771.2L1040.6,771.2z"/>
		</g>
		<g id="XMLID_52_" opacity="0.5">
			<path id="XMLID_478_" fill="#1C75BC" d="M1031.3,762h-10.9c5.1,0,9.2,4.1,9.2,9.2c0,5.1-4.1,9.2-9.2,9.2h10.9
				c5.1,0,9.2-4.1,9.2-9.2C1040.6,766.1,1036.4,762,1031.3,762z"/>
		</g>
		<g id="XMLID_51_" opacity="0.5">
			<path id="XMLID_453_" fill="#1C75BC" d="M810.1,762h10.9c-5.1,0-9.2,4.1-9.2,9.2c0,5.1,4.1,9.2,9.2,9.2h-10.9
				c-5.1,0-9.2-4.1-9.2-9.2C800.9,766.1,805,762,810.1,762z"/>
		</g>
		<g id="XMLID_50_">
			<path id="XMLID_475_" fill="#4F152A" d="M914.8,697c-0.4,0-0.7-0.1-1.1-0.2c-0.4-0.1-38.6-14.1-39.3-56.1c0-1,0.4-1.9,1.1-2.5
				c3-2.5,18.6-14.9,26.9-7.9c8,6.8,15.5,44.5,15.5,63.4c0,1-0.5,2-1.4,2.6C916,696.8,915.4,697,914.8,697z M880.8,642.2
				c1.2,28.2,21.4,41.9,30.6,46.6c-1.1-20.8-8.5-49.6-13.2-53.5C895.5,632.9,886.8,637.6,880.8,642.2z"/>
		</g>
		<g id="XMLID_49_">
			<path id="XMLID_472_" fill="#4F152A" d="M1030.5,765.2H810.4c-0.5,0-1-0.1-1.5-0.4c-0.2-0.1-17.5-9.5-8.8-34.2
				c3-8.5,6.5-15,9.2-20.1c4.7-8.8,6.2-12,3.2-15.6c-6.2-7.4-17.8-31.7-12.8-42.5c1.7-3.6,5-5.6,9.3-5.6c6.9,0,11.9,2.7,17.1,5.6
				c8,4.4,17,9.3,36.9,5c5.6-1.2,10.8-2.5,15.9-4.1c0.8-0.3,1.7-0.2,2.5,0.2c0.8,0.4,1.3,1.1,1.5,1.9c7.5,25.9,31.8,35,32.9,35.4
				c0.1,0,0.1,0,0.2,0.1c0.4,0.2,0.7,0.4,1,0.7c10.1,10.3,24.4,16.1,42.5,17.1c4.8,0.3,9.5,0.5,14,0.7c24.7,1,46,1.9,56.1,15
				c6.4,8.3,7.7,20.8,3.9,38.3C1033.3,764.1,1032,765.2,1030.5,765.2z M811.3,758.8h216.6c2.7-14.2,1.6-24.2-3.3-30.5
				c-8.3-10.7-27.3-11.5-51.3-12.5c-4.6-0.2-9.3-0.4-14.1-0.7l0,0c-19.4-1.1-34.9-7.3-46.2-18.5c-4.3-1.7-26.6-11.7-35.2-36.3
				c-4.3,1.2-8.7,2.3-13.4,3.3c-22.3,4.8-32.8-1-41.3-5.7c-4.7-2.6-8.7-4.8-14-4.8c-2.3,0-3.1,0.9-3.5,1.9
				c-3.4,7.2,6.1,28.9,11.9,35.7c6,7.1,2.3,14-2.4,22.7c-2.7,5-6,11.2-8.8,19.3C800.1,749.8,808.9,757.2,811.3,758.8z"/>
		</g>
		<g id="XMLID_48_">
			<path id="XMLID_469_" fill="#4F152A" d="M1030.5,765.2h-46.3c-1.2,0-2.2-0.6-2.8-1.6c-4-7.3-6.2-15.6-6.2-23.9
				c0-10.2,3.1-19.9,8.9-28.2c0.6-0.9,1.7-1.4,2.8-1.4c20.6,1.2,35,4.1,42.9,14.5c6.3,8.3,7.5,20.8,3.8,38.1
				C1033.3,764.1,1032,765.2,1030.5,765.2z M986.1,758.8h41.7c2.7-14.1,1.7-24-3.2-30.4c-6.2-8.2-19-10.7-36.4-11.9
				c-4.4,6.9-6.7,14.8-6.7,23.1C981.6,746.3,983.2,752.9,986.1,758.8z"/>
		</g>
		<g id="XMLID_47_">
			<path id="XMLID_466_" fill="#4F152A" d="M978.8,736.9c0,0-0.1,0-0.1,0c-58.6-2.7-87.5-23.1-101.5-39.7
				c-15.4-18.3-16.5-35.8-16.6-36.5c-0.1-1.6,1-3,2.5-3.3c5.6-1.2,10.8-2.5,15.9-4.1c0.8-0.3,1.7-0.2,2.5,0.2
				c0.8,0.4,1.3,1.1,1.5,1.9c7.5,25.9,31.8,35,32.9,35.4c0.1,0,0.1,0,0.2,0.1c0.4,0.2,0.7,0.4,1,0.7c10.1,10.3,24.4,16.1,42.5,17.1
				c4.8,0.3,9.4,0.5,13.9,0.7c4.7,0.2,9.2,0.4,13.5,0.6c1.2,0.1,2.2,0.8,2.7,1.8c0.5,1,0.4,2.3-0.3,3.2c-3.9,5.6-6.5,12.2-7.3,19.1
				C981.8,735.7,980.4,736.9,978.8,736.9z M867.3,663c0.9,5.3,4.2,17.8,15,30.4c18.5,21.7,50.9,34.4,93.8,36.9
				c0.9-5,2.7-9.8,5.1-14.2c-2.6-0.1-5.3-0.2-8-0.4c-4.5-0.2-9.2-0.4-14-0.7l0,0c-19.4-1.1-34.9-7.3-46.2-18.5
				c-4.3-1.7-26.6-11.7-35.2-36.3C874.4,661.3,870.9,662.2,867.3,663z"/>
		</g>
		<g id="XMLID_46_">
			<path id="XMLID_463_" fill="#4F152A" d="M1031.3,783.6H810.2c-6.8,0-12.4-5.6-12.4-12.4c0-6.8,5.6-12.4,12.4-12.4h221.1
				c6.8,0,12.4,5.6,12.4,12.4C1043.7,778,1038.2,783.6,1031.3,783.6z M810.2,765.2c-3.3,0-6,2.7-6,6c0,3.3,2.7,6,6,6h221.1
				c3.3,0,6-2.7,6-6c0-3.3-2.7-6-6-6H810.2z"/>
		</g>
	</g>
	<g id="XMLID_25_">
		<g id="XMLID_45_">
			<rect id="XMLID_655_" x="124.2" y="629.1" fill="#FFFFFF" width="239.7" height="151.3"/>
		</g>
		<g id="XMLID_44_">
			<rect id="XMLID_654_" x="132.7" y="637.7" fill="#2BB673" width="222.6" height="134.2"/>
		</g>
		<g id="XMLID_43_">
			<path id="XMLID_460_" fill="#4F152A" d="M363.9,783.6H124.2c-1.8,0-3.2-1.4-3.2-3.2V629.1c0-1.8,1.4-3.2,3.2-3.2h239.7
				c1.8,0,3.2,1.4,3.2,3.2v151.3C367.1,782.2,365.6,783.6,363.9,783.6z M127.4,777.2h233.3V632.3H127.4V777.2z"/>
		</g>
		<g id="XMLID_26_">
			<g id="XMLID_27_">
				<path id="XMLID_28_" fill="#137D3F" d="M152.9,657.4v17.3l-5.5,5.5l-1.8-1.8v-23.7L152.9,657.4z M145.6,707.6v-23.7l1.8-1.8
					l5.5,5.5v17.3L145.6,707.6z M177.5,713.9h-27.3c-2.4-0.6-3.9-2.1-4.6-4.6l7.3-2.7h21.9L177.5,713.9z M174.8,655.6H153l-7.3-2.7
					c0.6-2.4,2.1-3.9,4.6-4.6h27.2L174.8,655.6z M176.6,674.7v-19.1l2.7-7.3c2.4,0.6,4,2.1,4.6,4.6v25.5l-1.8,1.8L176.6,674.7z
					 M182.1,682l1.8,1.8v25.5c-0.6,2.4-2.1,4-4.6,4.6l-2.7-7.3v-19.1L182.1,682z"/>
			</g>
			<g id="XMLID_29_">
				<path id="XMLID_30_" fill="#137D3F" d="M200.3,657.4v17.3l-5.5,5.5l-1.8-1.8v-23.7L200.3,657.4z M193,707.6v-23.7l1.8-1.8
					l5.5,5.5v17.3L193,707.6z M224.9,713.9h-27.3c-2.4-0.6-3.9-2.1-4.6-4.6l7.3-2.7h21.9L224.9,713.9z M222.2,655.6h-21.8l-7.3-2.7
					c0.6-2.4,2.1-3.9,4.6-4.6h27.2L222.2,655.6z M224,674.7v-19.1l2.7-7.3c2.4,0.6,3.9,2.1,4.6,4.6v25.5l-1.8,1.8L224,674.7z
					 M229.5,682l1.8,1.8v25.5c-0.6,2.4-2.1,4-4.6,4.6l-2.7-7.3v-19.1L229.5,682z"/>
			</g>
			<g id="XMLID_153_">
				<path id="XMLID_154_" fill="#137D3F" d="M247.7,670.2h-7.3v-7.3h7.3V670.2z M247.7,699.3h-7.3v-7.3h7.3V699.3z"/>
			</g>
			<g id="XMLID_157_">
				<path id="XMLID_158_" fill="#137D3F" d="M264.1,657.4v17.3l-5.5,5.5l-1.8-1.8v-23.7L264.1,657.4z M256.8,707.6v-23.7l1.8-1.8
					l5.5,5.5v17.3L256.8,707.6z M288.7,713.9h-27.3c-2.4-0.6-3.9-2.1-4.6-4.6l7.3-2.7H286L288.7,713.9z M286,655.6h-21.8l-7.3-2.7
					c0.6-2.4,2.1-3.9,4.5-4.6h27.2L286,655.6z M287.8,674.7v-19.1l2.7-7.3c2.4,0.6,3.9,2.1,4.6,4.6v25.5l-1.8,1.8L287.8,674.7z
					 M293.2,682l1.8,1.8v25.5c-0.6,2.4-2.1,4-4.6,4.6l-2.7-7.3v-19.1L293.2,682z"/>
			</g>
			<g id="XMLID_165_">
				<path id="XMLID_166_" fill="#137D3F" d="M311.5,657.4v17.3l-5.5,5.5l-1.8-1.8v-23.7L311.5,657.4z M304.2,707.6v-23.7l1.8-1.8
					l5.5,5.5v17.3L304.2,707.6z M336.1,713.9h-27.3c-2.4-0.6-4-2.1-4.6-4.6l7.3-2.7h21.9L336.1,713.9z M333.3,655.6h-21.8l-7.3-2.7
					c0.6-2.4,2.1-3.9,4.6-4.6h27.2L333.3,655.6z M335.2,674.7v-19.1l2.7-7.3c2.4,0.6,3.9,2.1,4.6,4.6v25.5l-1.8,1.8L335.2,674.7z
					 M340.6,682l1.8,1.8v25.5c-0.6,2.4-2.1,4-4.6,4.6l-2.7-7.3v-19.1L340.6,682z"/>
			</g>
		</g>
		<g id="XMLID_173_">
			<g id="XMLID_174_">
				<rect id="XMLID_653_" x="145.6" y="741.5" fill="#137D3F" width="85.7" height="18.1"/>
			</g>
			<g id="XMLID_175_">
				<rect id="XMLID_652_" x="256.8" y="741.5" fill="#137D3F" width="85.7" height="18.1"/>
			</g>
		</g>
	</g>
</g>
</svg>
